# xmcd
#
# Track frame offsets:
#	150
#	16981
#	33477
#	50270
#	76472
#	97841
#	109856
#	131107
#	151509
#	174585
#	188883
#	210497
#	226221
#	237837
#	254091
#	277530
#	294247
#	320104
#
# Disc length: 4303 seconds
#
# Revision: 1
# Processed by: cddbd v1.5.1PL0 Copyright (c) Steve Scherf et al.
# Submitted via: audiograbber 1.81.02
#
DISCID=e910cd12
DTITLE=Various Artist - Akoestische Blues
DYEAR=2002
DGENRE=Blues
TTITLE0=Hans Theesink - Going to Dallas
TTITLE1=Tineke Schooenmaker - How long blues
TTITLE2=Bob Pearce - Call my blues
TTITLE3=Josie Kuhn and Iain Boelens - Hook, line and sinker
TTITLE4=The Mudsliders - Walk on
TTITLE5=Left hand Freddy - Maggie Campbell blues
TTITLE6=Tom Shaka - Steamroller blues
TTITLE7=Michael Roach - John Henry
TTITLE8=The Mudsliders - My girlis days
TTITLE9=Hans Theesink - Big Bill's guitar
TTITLE10=Tineke Schoemaker - Remember me
TTITLE11=Bob Pearce - Cancel my reservation
TTITLE12=Left hand Freddy - Little red rooster
TTITLE13=Michael Roach - Bootlegger blues
TTITLE14=Tom Shaka - Sitting on top of the world
TTITLE15=Michael de Jong - The green letter blues
TTITLE16=BJ Hegen - The Amer blues
TTITLE17=Tom Shaka - Amen
EXTD=Live vanuit Cafe de Amer
EXTT0=
EXTT1=
EXTT2=
EXTT3=
EXTT4=
EXTT5=
EXTT6=
EXTT7=
EXTT8=
EXTT9=
EXTT10=
EXTT11=
EXTT12=
EXTT13=
EXTT14=
EXTT15=
EXTT16=
EXTT17=
PLAYORDER=
